# xmcd
#
# Track frame offsets: 
#        150
#        14687
#        33775
#        50733
#        64582
#        85666
#        99059
#        111293
#        125632
#        142425
#        158557
#        173451
#        186434
#        198863
#        213393
#        231909
#        250260
#        267502
#        280697
#        294245
#        310124
#        323124
#        337845
#
# Disc length: 4716 seconds
#
# Revision: 1
# Processed by: cddbd v1.5.2PL0 Copyright (c) Steve Scherf et al.
# Submitted via: ExactAudioCopy v0.99pb4
#
DISCID=47126a17
DTITLE=Sunnyland Slim and Johnny Shines - The Complete Blue Horizen Sess
DTITLE=ions
DYEAR=2008
DGENRE=Blues
TTITLE0=Sunnyland Slim - Layin' In My Cell, Sleepin'
TTITLE1=Sunnyland Slim - I Am The Blues
TTITLE2=Sunnyland Slim - Sunnyland Special
TTITLE3=Sunnyland Slim - Heartache
TTITLE4=Sunnyland Slim - Lowland Blues
TTITLE5=Sunnyland Slim - Stepmother
TTITLE6=Sunnyland Slim - Get To My Baby (Take 2)
TTITLE7=Sunnyland Slim - Get To My Baby (Take 3)
TTITLE8=Sunnyland Slim - Stella Mae
TTITLE9=Sunnyland Slim - Midnight Jump (Take 3)
TTITLE10=Sunnyland Slim - Midnight Jump
TTITLE11=Sunnyland Slim - Depression Blues
TTITLE12=Sunnyland Slim - Heartache (Alt)
TTITLE13=Johnny Shines - Solid Gold
TTITLE14=Johnny Shines - From Dark 'Til Dawn
TTITLE15=Johnny Shines - I Will Be Kind To You
TTITLE16=Johnny Shines - Last Night's Dream
TTITLE17=Johnny Shines - Baby Don't You Think I Know
TTITLE18=Johnny Shines - Pipeline Blues
TTITLE19=Johnny Shines - I Don't Know
TTITLE20=Johnny Shines - Black Panther
TTITLE21=Johnny Shines - I Had A Good Home
TTITLE22=Johnny Shines - Mean Fisherman
EXTD=
EXTT0=
EXTT1=
EXTT2=
EXTT3=
EXTT4=
EXTT5=
EXTT6=
EXTT7=
EXTT8=
EXTT9=
EXTT10=
EXTT11=
EXTT12=
EXTT13=
EXTT14=
EXTT15=
EXTT16=
EXTT17=
EXTT18=
EXTT19=
EXTT20=
EXTT21=
EXTT22=
PLAYORDER=
